HIERARCHY
ROOT hips
{
	OFFSET -0.003675 0.299928 -0.021708
	CHANNELS 6 Xposition Yposition Zposition Xrotation Yrotation Zrotation
	JOINT LowerBack
	{
		OFFSET 0.000919 0.177588 0.009275
		CHANNELS 3 Xrotation Yrotation Zrotation
		JOINT spine
		{
			OFFSET 0.000919 0.177588 0.009275
			CHANNELS 3 Xrotation Yrotation Zrotation
			JOINT chest
			{
				OFFSET 0.000456 0.100015 0.004638
				CHANNELS 3 Xrotation Yrotation Zrotation
				JOINT neck
				{
					OFFSET 0.000456 0.100015 0.004638
					CHANNELS 3 Xrotation Yrotation Zrotation
					JOINT head
					{
						OFFSET 0.000924 0.155147 0.009274
						CHANNELS 6 Xposition Yposition Zposition Xrotation Yrotation Zrotation
						End Site
						{
							OFFSET 0.000000 0.153400 0.000000
						}
					}
				}
				JOINT shoulder.L
				{
					OFFSET 0.019937 0.078966 0.057518
					CHANNELS 6 Xposition Yposition Zposition Yrotation Xrotation Zrotation
					JOINT upper_arm.L
					{
						OFFSET 0.177024 -0.020465 -0.095062
						CHANNELS 6 Xposition Yposition Zposition Xrotation Yrotation Zrotation
						JOINT forearm.L
						{
							OFFSET 0.247100 -0.135500 -0.061800
							CHANNELS 3 Xrotation Yrotation Zrotation
							JOINT hand.L
							{
								OFFSET 0.217000 -0.143000 0.039300
								CHANNELS 3 Xrotation Yrotation Zrotation
								JOINT palm.01.L
								{
									OFFSET 0.021770 -0.038291 0.012954
									CHANNELS 6 Xposition Yposition Zposition Yrotation Xrotation Zrotation
									JOINT f_index.01.L
									{
										OFFSET 0.053215 -0.044137 0.008236
										CHANNELS 3 Xrotation Yrotation Zrotation
										JOINT f_index.02.L
										{
											OFFSET 0.036108 -0.024723 -0.010656
											CHANNELS 3 Xrotation Yrotation Zrotation
											JOINT f_index.03.L
											{
												OFFSET 0.021342 -0.014948 -0.010846
												CHANNELS 3 Xrotation Yrotation Zrotation
												End Site
												{
													OFFSET 0.015600 -0.009860 -0.013421
												}
											}
										}
									}
									JOINT thumb.01.L
									{
										OFFSET -0.009090 -0.002348 -0.024223
										CHANNELS 6 Xposition Yposition Zposition Xrotation Yrotation Zrotation
										JOINT thumb.02.L
										{
											OFFSET 0.019713 -0.035076 -0.011120
											CHANNELS 3 Xrotation Yrotation Zrotation
											JOINT thumb.03.L
											{
												OFFSET 0.024877 -0.021748 -0.005176
												CHANNELS 3 Xrotation Yrotation Zrotation
												End Site
												{
													OFFSET 0.016125 -0.013029 -0.001569
												}
											}
										}
									}
								}
								JOINT palm.02.L
								{
									OFFSET 0.032823 -0.025104 0.012281
									CHANNELS 6 Xposition Yposition Zposition Yrotation Xrotation Zrotation
									JOINT f_middle.01.L
									{
										OFFSET 0.055723 -0.038469 0.008037
										CHANNELS 3 Xrotation Yrotation Zrotation
										JOINT f_middle.02.L
										{
											OFFSET 0.038167 -0.027473 -0.015582
											CHANNELS 3 Xrotation Yrotation Zrotation
											JOINT f_middle.03.L
											{
												OFFSET 0.021707 -0.016587 -0.017037
												CHANNELS 3 Xrotation Yrotation Zrotation
												End Site
												{
													OFFSET 0.014112 -0.010584 -0.014294
												}
											}
										}
									}
								}
								JOINT palm.03.L
								{
									OFFSET 0.039230 -0.011402 0.008390
									CHANNELS 6 Xposition Yposition Zposition Yrotation Xrotation Zrotation
									JOINT f_ring.01.L
									{
										OFFSET 0.061796 -0.031470 0.007910
										CHANNELS 3 Xrotation Yrotation Zrotation
										JOINT f_ring.02.L
										{
											OFFSET 0.033092 -0.023401 -0.019127
											CHANNELS 3 Xrotation Yrotation Zrotation
											JOINT f_ring.03.L
											{
												OFFSET 0.021392 -0.015362 -0.017824
												CHANNELS 3 Xrotation Yrotation Zrotation
												End Site
												{
													OFFSET 0.008670 -0.007297 -0.014686
												}
											}
										}
									}
								}
								JOINT palm.04.L
								{
									OFFSET 0.043417 0.002450 0.002889
									CHANNELS 6 Xposition Yposition Zposition Yrotation Xrotation Zrotation
									JOINT f_pinky.01.L
									{
										OFFSET 0.069986 -0.026156 0.003627
										CHANNELS 3 Xrotation Yrotation Zrotation
										JOINT f_pinky.02.L
										{
											OFFSET 0.018520 -0.012813 -0.016429
											CHANNELS 3 Xrotation Yrotation Zrotation
											JOINT f_pinky.03.L
											{
												OFFSET 0.013822 -0.009796 -0.014947
												CHANNELS 3 Xrotation Yrotation Zrotation
												End Site
												{
													OFFSET 0.007238 -0.006103 -0.011657
												}
											}
										}
									}
								}
							}
						}
					}
				}
				JOINT shoulder.R
				{
					OFFSET -0.016662 0.078957 0.057696
					CHANNELS 6 Xposition Yposition Zposition Yrotation Xrotation Zrotation
					JOINT upper_arm.R
					{
						OFFSET -0.176972 -0.020537 -0.095144
						CHANNELS 6 Xposition Yposition Zposition Xrotation Yrotation Zrotation
						JOINT forearm.R
						{
							OFFSET -0.247100 -0.135500 -0.061800
							CHANNELS 3 Xrotation Yrotation Zrotation
							JOINT hand.R
							{
								OFFSET -0.217000 -0.143000 0.039300
								CHANNELS 3 Xrotation Yrotation Zrotation
								JOINT palm.01.R
								{
									OFFSET -0.021773 -0.038278 0.012988
									CHANNELS 6 Xposition Yposition Zposition Yrotation Xrotation Zrotation
									JOINT f_index.01.R
									{
										OFFSET -0.053212 -0.044139 0.008249
										CHANNELS 3 Xrotation Yrotation Zrotation
										JOINT f_index.02.R
										{
											OFFSET -0.036049 -0.024835 -0.010634
											CHANNELS 3 Xrotation Yrotation Zrotation
											JOINT f_index.03.R
											{
												OFFSET -0.021371 -0.014881 -0.010866
												CHANNELS 3 Xrotation Yrotation Zrotation
												End Site
												{
													OFFSET -0.015584 -0.009883 -0.013422
												}
											}
										}
									}
									JOINT thumb.01.R
									{
										OFFSET 0.009113 -0.002381 -0.024211
										CHANNELS 6 Xposition Yposition Zposition Xrotation Yrotation Zrotation
										JOINT thumb.02.R
										{
											OFFSET -0.019694 -0.035097 -0.011088
											CHANNELS 3 Xrotation Yrotation Zrotation
											JOINT thumb.03.R
											{
												OFFSET -0.024867 -0.021762 -0.005168
												CHANNELS 3 Xrotation Yrotation Zrotation
												End Site
												{
													OFFSET -0.016120 -0.013036 -0.001565
												}
											}
										}
									}
								}
								JOINT palm.02.R
								{
									OFFSET -0.032828 -0.025095 0.012286
									CHANNELS 6 Xposition Yposition Zposition Yrotation Xrotation Zrotation
									JOINT f_middle.01.R
									{
										OFFSET -0.055721 -0.038472 0.008040
										CHANNELS 3 Xrotation Yrotation Zrotation
										JOINT f_middle.02.R
										{
											OFFSET -0.038101 -0.027593 -0.015557
											CHANNELS 3 Xrotation Yrotation Zrotation
											JOINT f_middle.03.R
											{
												OFFSET -0.021730 -0.016530 -0.017054
												CHANNELS 3 Xrotation Yrotation Zrotation
												End Site
												{
													OFFSET -0.014096 -0.010608 -0.014293
												}
											}
										}
									}
								}
								JOINT palm.03.R
								{
									OFFSET -0.039192 -0.011488 0.008390
									CHANNELS 6 Xposition Yposition Zposition Yrotation Xrotation Zrotation
									JOINT f_ring.01.R
									{
										OFFSET -0.061839 -0.031387 0.007876
										CHANNELS 3 Xrotation Yrotation Zrotation
										JOINT f_ring.02.R
										{
											OFFSET -0.033068 -0.023437 -0.019125
											CHANNELS 3 Xrotation Yrotation Zrotation
											JOINT f_ring.03.R
											{
												OFFSET -0.021371 -0.015393 -0.017822
												CHANNELS 3 Xrotation Yrotation Zrotation
												End Site
												{
													OFFSET -0.008654 -0.007321 -0.014684
												}
											}
										}
									}
								}
								JOINT palm.04.R
								{
									OFFSET -0.043421 0.002443 0.002845
									CHANNELS 6 Xposition Yposition Zposition Yrotation Xrotation Zrotation
									JOINT f_pinky.01.R
									{
										OFFSET -0.069983 -0.026169 0.003599
										CHANNELS 3 Xrotation Yrotation Zrotation
										JOINT f_pinky.02.R
										{
											OFFSET -0.018501 -0.012842 -0.016428
											CHANNELS 3 Xrotation Yrotation Zrotation
											JOINT f_pinky.03.R
											{
												OFFSET -0.013806 -0.009821 -0.014946
												CHANNELS 3 Xrotation Yrotation Zrotation
												End Site
												{
													OFFSET -0.007226 -0.006121 -0.011655
												}
											}
										}
									}
								}
							}
						}
					}
				}
			}
		}
	}
	JOINT pelvis.L
	{
		OFFSET 0.000000 0.000000 0.000000
		CHANNELS 6 Xposition Yposition Zposition Xrotation Yrotation Zrotation
		JOINT thigh.L
		{
			OFFSET 0.101675 0.001054 -0.000000
			CHANNELS 3 Xrotation Yrotation Zrotation
			JOINT shin.L
			{
				OFFSET 0.000000 -0.534800 0.041000
				CHANNELS 3 Xrotation Yrotation Zrotation
				JOINT foot.L
				{
					OFFSET 0.000000 -0.452000 -0.044800
					CHANNELS 3 Xrotation Yrotation Zrotation
					JOINT toe.L
					{
						OFFSET -0.000000 -0.068500 0.109600
						CHANNELS 3 Xrotation Yrotation Zrotation
						End Site
						{
							OFFSET -0.000000 0.000000 0.067200
						}
					}
				}
				JOINT heel.L
				{
					OFFSET 0.000000 -0.452000 -0.044800
					CHANNELS 3 Xrotation Yrotation Zrotation
					JOINT heel.02.L
					{
						OFFSET -0.038000 -0.085200 0.016200
						CHANNELS 6 Xposition Yposition Zposition Xrotation Yrotation Zrotation
						End Site
						{
							OFFSET 0.080000 -0.000000 0.000000
						}
					}
				}
			}
		}
	}
	JOINT pelvis.R
	{
		OFFSET 0.000000 0.000000 0.000000
		CHANNELS 6 Xposition Yposition Zposition Xrotation Yrotation Zrotation
		JOINT thigh.R
		{
			OFFSET -0.094325 0.001054 0.000000
			CHANNELS 3 Xrotation Yrotation Zrotation
			JOINT shin.R
			{
				OFFSET 0.000000 -0.534800 0.041000
				CHANNELS 3 Xrotation Yrotation Zrotation
				JOINT foot.R
				{
					OFFSET 0.000000 -0.452000 -0.044800
					CHANNELS 3 Xrotation Yrotation Zrotation
					JOINT toe.R
					{
						OFFSET -0.000000 -0.068500 0.109600
						CHANNELS 3 Xrotation Yrotation Zrotation
						End Site
						{
							OFFSET -0.000000 0.000000 0.067200
						}
					}
				}
				JOINT heel.R
				{
					OFFSET 0.000000 -0.452000 -0.044800
					CHANNELS 3 Xrotation Yrotation Zrotation
					JOINT heel.02.R
					{
						OFFSET 0.038000 -0.085200 0.016200
						CHANNELS 6 Xposition Yposition Zposition Xrotation Yrotation Zrotation
						End Site
						{
							OFFSET -0.080000 0.000000 -0.000000
						}
					}
				}
			}
		}
	}
}
MOTION
Frames: 4
Frame Time: 0.041667
-0.003675 0.299928 -0.021708 0.000000 -0.000000 0.000000 -0.000001 0.000000 0.000000 -0.000000 0.000000 0.000000 -0.000000 0.000000 0.000000 -0.000000 -0.000000 -0.000000 0.000924 0.155147 0.009274 -0.000001 -0.000000 -0.000000 0.019937 0.078966 0.057518 0.000001 0.000001 -0.000005 0.177024 -0.020465 -0.095062 -0.000006 -0.000003 0.000015 -0.000009 -0.000004 -0.000009 -0.000000 0.000000 0.000001 0.021770 -0.038291 0.012954 0.000001 -0.000001 0.000001 -0.000001 -0.000001 -0.000002 -0.000001 -0.000000 0.000007 -0.000000 0.000000 0.000003 -0.009090 -0.002348 -0.024224 -0.000002 0.000001 0.000001 0.000001 -0.000001 0.000001 -0.000000 0.000000 -0.000001 0.032823 -0.025104 0.012281 0.000000 -0.000000 0.000000 0.000001 0.000004 -0.000003 -0.000001 -0.000000 -0.000000 -0.000001 -0.000003 0.000003 0.039230 -0.011402 0.008390 -0.000000 -0.000000 0.000008 0.000001 0.000001 -0.000000 -0.000001 0.000003 -0.000001 0.000002 0.000002 -0.000000 0.043417 0.002450 0.002889 -0.000000 0.000001 0.000002 -0.000001 -0.000003 0.000001 -0.000000 0.000003 -0.000000 -0.000000 -0.000003 0.000001 -0.016662 0.078956 0.057696 -0.000001 0.000002 0.000011 -0.176972 -0.020537 -0.095144 0.000001 -0.000003 -0.000005 -0.000006 0.000005 -0.000014 -0.000001 -0.000000 0.000000 -0.021773 -0.038278 0.012988 0.000000 -0.000001 -0.000003 -0.000001 0.000001 -0.000003 -0.000001 -0.000000 0.000001 0.000001 0.000002 0.000007 0.009113 -0.002381 -0.024211 0.000002 -0.000001 0.000004 -0.000000 0.000001 0.000002 0.000000 0.000000 -0.000003 -0.032828 -0.025095 0.012286 0.000001 -0.000001 -0.000001 -0.000001 0.000003 -0.000003 -0.000002 0.000004 -0.000001 0.000001 -0.000002 -0.000000 -0.039192 -0.011488 0.008390 0.000000 0.000000 0.000001 -0.000000 0.000003 -0.000003 -0.000001 0.000001 0.000002 -0.000001 0.000000 -0.000003 -0.043421 0.002443 0.002844 -0.000000 -0.000001 0.000000 -0.000007 0.000003 -0.000002 -0.000003 -0.000000 -0.000000 0.000001 -0.000000 0.000001 -0.000000 0.000000 -0.000000 -0.000001 -0.000000 0.000001 0.000009 -0.000202 0.000014 -0.000026 0.000202 -0.000015 0.000000 -0.000000 -0.000000 0.000002 -0.000000 -0.000000 0.000000 0.000000 -0.000000 -0.038000 -0.085200 0.016200 0.000000 0.000000 0.000000 0.000000 -0.000000 -0.000000 -0.000001 0.000000 -0.000004 0.000008 -0.000013 0.000005 -0.000012 0.000013 -0.000001 -0.000003 -0.000000 -0.000000 0.000000 -0.000000 -0.000000 0.000002 -0.000000 -0.000000 0.038000 -0.085200 0.016200 0.000002 -0.000000 0.000000 
-0.005567 0.281724 -0.011565 -0.336816 -6.540964 0.080143 -0.000000 0.000001 0.000000 -0.000000 0.000001 0.000000 -0.000000 -0.000000 0.000000 0.000000 -0.000001 -0.000000 0.000924 0.155147 0.009274 6.208795 -0.006081 -2.580433 0.019937 0.078966 0.057518 4.480694 8.601405 41.625458 0.177024 -0.020466 -0.095062 -13.287651 -6.867306 -6.179613 0.896664 5.946394 22.407848 0.000001 -0.000002 0.000002 0.021770 -0.038291 0.012954 0.000003 -0.000001 0.000001 -0.000002 -0.000002 -0.000002 0.000001 -0.000000 0.000007 -0.000000 0.000002 0.000002 -0.009090 -0.002348 -0.024223 -0.000000 -0.000001 -0.000003 0.000001 0.000000 -0.000000 -0.000000 -0.000000 -0.000002 0.032823 -0.025104 0.012281 0.000000 -0.000002 0.000007 0.000003 0.000002 -0.000005 -0.000003 0.000001 0.000003 -0.000002 0.000000 -0.000003 0.039230 -0.011402 0.008390 0.000002 -0.000000 0.000006 0.000002 0.000002 -0.000000 0.000002 0.000004 -0.000004 -0.000001 -0.000006 -0.000000 0.043417 0.002450 0.002889 0.000000 -0.000003 -0.000003 -0.000000 -0.000003 -0.000000 -0.000003 0.000006 0.000003 0.000001 0.000002 -0.000003 -0.016662 0.078957 0.057696 -5.841863 8.630796 -40.542627 -0.176972 -0.020537 -0.095144 -16.096599 11.728831 5.579696 0.852730 -4.731698 -18.770123 -0.000000 0.000001 0.000002 -0.021773 -0.038278 0.012988 0.000001 -0.000000 -0.000003 -0.000001 0.000002 0.000002 -0.000001 -0.000001 -0.000008 0.000001 0.000000 -0.000001 0.009114 -0.002381 -0.024212 0.000002 -0.000002 0.000002 -0.000000 -0.000000 0.000000 0.000001 -0.000001 -0.000001 -0.032828 -0.025095 0.012286 0.000001 0.000000 -0.000004 -0.000000 0.000002 -0.000001 -0.000000 0.000003 -0.000000 0.000001 0.000002 0.000002 -0.039191 -0.011488 0.008390 -0.000000 0.000001 0.000003 0.000000 0.000002 -0.000007 -0.000001 -0.000002 -0.000000 -0.000000 0.000006 -0.000002 -0.043421 0.002443 0.002845 -0.000001 0.000002 0.000004 -0.000003 0.000004 -0.000004 0.000001 0.000000 0.000000 -0.000003 0.000001 -0.000000 -0.000000 0.000000 -0.000000 -1.302679 0.009217 -1.162916 9.068571 0.377281 4.728736 16.181456 -0.140351 1.418207 0.000002 -0.000000 -0.000000 -0.000000 0.000000 -0.000001 0.000003 0.000001 0.000000 -0.038000 -0.085200 0.016200 0.000001 0.000001 -0.000001 -0.000000 0.000000 -0.000000 -1.274444 0.008938 0.071274 10.327701 -0.459120 -5.655461 18.924041 0.584935 -5.911740 0.000002 -0.000000 -0.000001 0.000004 0.000000 0.000001 0.000007 -0.000001 -0.000002 0.038000 -0.085200 0.016200 -0.000001 -0.000001 -0.000000 
-0.004716 0.281050 -0.011031 0.076765 -3.076093 0.299355 -0.000000 0.000000 -0.000000 -0.000000 0.000001 -0.000000 -0.000000 0.000000 -0.000000 0.000000 0.000000 -0.000000 0.000924 0.155148 0.009274 6.700291 -0.006542 -1.010929 0.019937 0.078966 0.057518 4.773680 8.150317 39.218069 0.177024 -0.020466 -0.095062 -15.962345 -1.097436 -19.291767 -0.385829 -0.031587 25.409222 -0.000000 0.000000 -0.000001 0.021770 -0.038291 0.012954 -0.000000 0.000000 0.000001 -0.000003 0.000001 0.000003 0.000000 -0.000000 0.000005 0.000002 0.000003 -0.000000 -0.009090 -0.002348 -0.024223 -0.000000 -0.000000 -0.000004 0.000001 -0.000000 0.000001 -0.000000 -0.000000 -0.000001 0.032823 -0.025104 0.012281 -0.000001 -0.000003 0.000002 -0.000001 0.000001 -0.000005 -0.000003 0.000002 0.000004 -0.000001 0.000002 -0.000003 0.039230 -0.011402 0.008390 -0.000000 0.000001 0.000003 0.000001 -0.000002 0.000008 -0.000002 -0.000002 0.000005 0.000001 0.000000 -0.000003 0.043417 0.002450 0.002889 -0.000001 0.000000 -0.000005 -0.000004 -0.000005 0.000001 0.000000 0.000003 0.000001 -0.000003 -0.000003 0.000000 -0.016662 0.078957 0.057696 -6.371164 8.376917 -38.927809 -0.176972 -0.020537 -0.095144 -20.728591 7.358700 16.784071 0.736661 -4.941796 -20.796876 -0.000000 0.000001 -0.000002 -0.021773 -0.038278 0.012988 0.000000 -0.000001 0.000002 -0.000002 0.000004 -0.000003 -0.000003 0.000000 0.000003 0.000001 -0.000001 0.000007 0.009114 -0.002381 -0.024211 -0.000001 -0.000001 -0.000004 -0.000000 -0.000003 0.000000 0.000001 -0.000001 0.000001 -0.032828 -0.025095 0.012286 0.000001 -0.000000 0.000001 0.000002 0.000002 -0.000001 0.000002 -0.000001 -0.000001 -0.000000 -0.000001 -0.000004 -0.039192 -0.011488 0.008390 0.000001 0.000000 0.000001 0.000003 -0.000000 0.000002 0.000000 -0.000001 -0.000004 0.000001 0.000000 -0.000001 -0.043421 0.002443 0.002845 -0.000001 0.000001 0.000007 -0.000004 0.000000 0.000001 -0.000000 -0.000003 0.000002 -0.000001 -0.000003 -0.000001 0.000000 0.000000 -0.000000 -1.299051 0.048628 -1.688813 7.017439 0.185821 2.328057 17.224439 -0.123160 1.244704 0.000000 0.000000 -0.000000 0.000000 0.000000 0.000000 0.000003 -0.000000 -0.000000 -0.038000 -0.085200 0.016200 -0.000005 0.000000 -0.000000 0.000000 0.000000 0.000000 -1.269781 0.048070 -0.454657 7.961240 -0.238027 -2.913443 20.068516 0.461793 -4.663903 0.000002 -0.000000 0.000000 0.000005 0.000000 0.000000 0.000005 -0.000000 -0.000000 0.038000 -0.085200 0.016200 -0.000001 0.000000 -0.000001 
-0.004554 0.282088 -0.011629 2.083543 -1.268624 0.152202 -0.000001 -0.000000 -0.000000 -0.000000 -0.000000 -0.000000 -0.000000 0.000000 -0.000000 -0.000000 0.000000 0.000000 0.000924 0.155147 0.009274 7.869386 -0.008329 1.949413 0.019937 0.078966 0.057518 3.667821 7.564325 37.190066 0.177024 -0.020465 -0.095062 -15.874628 3.272614 -28.861108 1.861787 7.418192 16.760082 -0.000001 -0.000000 0.000001 0.021770 -0.038291 0.012954 -0.000001 0.000000 -0.000002 -0.000002 -0.000001 0.000001 -0.000000 0.000003 0.000003 -0.000001 -0.000002 -0.000002 -0.009090 -0.002348 -0.024224 -0.000001 -0.000001 0.000002 0.000000 0.000001 0.000001 0.000000 0.000001 -0.000002 0.032823 -0.025104 0.012281 -0.000001 -0.000000 0.000002 -0.000001 0.000003 -0.000005 -0.000002 -0.000005 0.000003 -0.000001 0.000001 0.000001 0.039230 -0.011402 0.008390 -0.000001 0.000001 0.000004 0.000001 0.000002 -0.000000 -0.000001 0.000005 0.000001 -0.000001 -0.000003 0.000003 0.043417 0.002450 0.002889 -0.000001 0.000002 -0.000000 -0.000001 -0.000003 0.000001 -0.000001 -0.000003 0.000001 -0.000001 -0.000003 -0.000002 -0.016662 0.078956 0.057696 -7.628676 8.069506 -36.802835 -0.176972 -0.020537 -0.095144 -21.896330 3.079357 24.660753 1.325794 -5.396357 -15.918929 0.000002 0.000001 -0.000002 -0.021773 -0.038278 0.012988 0.000001 -0.000001 0.000000 -0.000003 0.000001 -0.000001 -0.000001 -0.000000 -0.000004 -0.000001 0.000004 0.000006 0.009113 -0.002381 -0.024211 0.000002 -0.000000 0.000001 -0.000000 0.000000 -0.000001 0.000000 0.000000 -0.000006 -0.032828 -0.025095 0.012286 0.000002 0.000003 -0.000001 -0.000003 0.000006 -0.000003 -0.000001 -0.000001 -0.000001 -0.000000 -0.000000 -0.000002 -0.039192 -0.011488 0.008390 0.000001 0.000002 0.000001 -0.000003 0.000006 -0.000003 0.000004 0.000000 -0.000000 -0.000002 -0.000003 -0.000000 -0.043421 0.002443 0.002845 0.000000 0.000000 -0.000003 -0.000006 0.000002 -0.000002 0.000001 -0.000001 0.000002 -0.000003 -0.000001 -0.000003 0.000000 0.000000 -0.000000 -1.298628 0.070605 -1.981876 3.464960 0.102451 1.411097 19.647661 -0.078809 0.797173 0.000002 -0.000000 -0.000000 -0.000000 -0.000000 -0.000000 0.000000 -0.000000 0.000000 -0.038000 -0.085200 0.016200 0.000001 -0.000000 0.000000 -0.000000 0.000000 0.000000 -1.268744 0.069882 -0.747739 4.664518 -0.047401 -0.629579 19.555714 0.449240 -4.536844 0.000003 0.000000 -0.000000 -0.000001 0.000000 -0.000000 0.000007 0.000000 -0.000000 0.038000 -0.085200 0.016200 0.000001 0.000000 0.000001 
